<?xml version="1.0" encoding="UTF-8" standalone="no"?>
<!DOCTYPE svg PUBLIC "-//W3C//DTD SVG 1.1//EN" "http://www.w3.org/Graphics/SVG/1.1/DTD/svg11.dtd">
<svg xmlns="http://www.w3.org/2000/svg" xmlns:xl="http://www.w3.org/1999/xlink" version="1.1" viewBox="260 620 482 512" width="482pt" height="512pt" xmlns:dc="http://purl.org/dc/elements/1.1/">
  <metadata> Produced by OmniGraffle 7.2.2 
    <dc:date>2023-03-22 13:44:46 +0000</dc:date>
  </metadata>
  <defs/>
  <g stroke="none" stroke-opacity="1" stroke-dasharray="none" fill="none" fill-opacity="1">
    <title>Canvas 1</title>
    <g>
      <title>Layer 1</title>
      <path d="M 615.638 1132 C 607.855 1132 600.214 1130.13 593.214 1126.422 C 557.184 1107.337 533.799 1075.239 516.723 1051.802 C 511.711 1044.92 505.222 1036.015 500.998 1031.678 C 496.773 1036.016 490.285 1044.921 485.272 1051.802 C 468.197 1075.24 444.814 1107.338 408.782 1126.422 C 396.699 1132.822 382.701 1133.747 369.365 1129.026 C 354.89 1123.902 343.118 1112.828 337.066 1098.642 C 326.797 1074.571 333.504 1050.21 354.572 1035.066 C 359.46 1031.552 364.685 1027.61 369.608 1023.861 C 351.296 1028.672 329.827 1032.403 314.44 1032.403 C 284.802 1032.403 260.691 1008.292 260.691 978.654 C 260.691 949.016 284.802 924.905 314.44 924.905 C 342.199 924.905 375.199 918.387 384.57 900.096 C 390.218 889.071 384.482 877.143 378.675 869.08 C 357.574 839.776 346.42 807.098 346.42 774.58 C 346.419 689.344 415.763 620 500.999 620 C 586.234 620 655.578 689.344 655.578 774.579 C 655.578 807.097 644.424 839.775 623.323 869.079 C 617.517 877.143 611.78 889.069 617.428 900.095 C 626.798 918.388 659.799 924.904 687.558 924.904 C 717.196 924.904 741.307 949.015 741.307 978.653 C 741.307 1008.291 717.195 1032.402 687.558 1032.402 C 672.17 1032.402 650.701 1028.671 632.39 1023.86 C 637.31 1027.609 642.536 1031.551 647.425 1035.066 C 668.494 1050.21 675.2 1074.571 664.931 1098.642 C 658.879 1112.828 647.107 1123.902 632.632 1129.026 C 627.021 1131.014 621.292 1132 615.638 1132" fill="#05998b"/>
      <path d="M 500.999 620 L 500.999 1031.678 C 505.223 1036.016 511.712 1044.921 516.724 1051.802 C 533.799 1075.24 557.183 1107.338 593.215 1126.422 C 600.215 1130.129 607.855 1132 615.639 1132 C 621.293 1132 627.022 1131.014 632.633 1129.027 C 647.107 1123.903 658.88 1112.829 664.932 1098.643 C 668.121 1091.168 669.673 1083.665 669.666 1076.419 C 669.65 1060.331 661.952 1045.509 647.426 1035.067 C 642.537 1031.552 637.312 1027.61 632.391 1023.861 C 650.702 1028.672 672.171 1032.403 687.559 1032.403 C 717.197 1032.403 741.308 1008.292 741.308 978.654 C 741.308 949.016 717.196 924.905 687.559 924.905 C 659.799 924.905 626.799 918.387 617.429 900.096 C 615.797 896.909 615.116 893.646 615.111 890.424 C 615.103 882.498 619.195 874.813 623.323 869.08 C 644.424 839.776 655.578 807.098 655.578 774.58 C 655.579 689.344 586.234 620 500.999 620" fill="#add35f"/>
      <path d="M 428.268 792.404 C 428.268 780.892 437.496 771.569 448.836 771.569 C 460.191 771.569 469.418 780.892 469.418 792.404 C 469.418 803.914 460.191 813.246 448.836 813.246 C 437.496 813.245 428.268 803.914 428.268 792.404 Z" fill="white"/>
      <path d="M 573.729 792.404 C 573.729 780.807 564.441 771.406 553.005 771.406 C 541.555 771.406 532.267 780.807 532.267 792.404 C 532.267 804.001 541.555 813.402 553.005 813.402 C 564.442 813.401 573.729 804.001 573.729 792.404 Z" fill="white"/>
    </g>
  </g>
</svg>
